<svg width="172" height="45" viewBox="0 0 172 45" fill="none" xmlns="http://www.w3.org/2000/svg">
<rect x="10.1753" y="2.36572" width="152.478" height="42.6341" fill="#1A1919"/>
<rect x="9.83584" y="0.1" width="152.278" height="42.4341" fill="white" stroke="black" stroke-width="0.2"/>
<path d="M27.465 27L28.575 24.015H33.885L35.01 27H35.745L31.755 16.35H30.69L26.745 27H27.465ZM31.125 17.115C31.155 17.04 31.2 16.905 31.215 16.845C31.23 16.92 31.275 17.025 31.305 17.115L33.645 23.355H28.815L31.125 17.115ZM36.3485 23.43C36.3485 25.68 37.6985 27.18 39.6785 27.18C41.2085 27.18 42.4385 26.28 42.8285 24.915H42.1235C41.7935 25.89 40.8335 26.55 39.6785 26.55C38.0735 26.55 37.0235 25.275 37.0235 23.415C37.0235 21.465 38.1635 20.235 39.7685 20.235C40.8335 20.235 41.7935 20.835 42.0935 21.9H42.7985C42.4685 20.535 41.3135 19.62 39.7685 19.62C37.6985 19.62 36.3485 21.15 36.3485 23.43ZM45.2411 27V24.75L46.7861 23.145L49.2761 27H50.0711L47.2511 22.68L50.0411 19.8H49.1561L45.2411 23.835V16.17H44.5511V27H45.2411ZM52.0512 27V23.28C52.0512 21.465 52.9662 20.25 54.6012 20.25C55.9062 20.25 56.7312 20.85 56.7312 22.755V27H57.4212V22.62C57.4212 20.82 56.6562 19.62 54.6162 19.62C53.5362 19.62 52.5462 20.19 52.0662 21.195L51.9162 19.8H51.3612V27H52.0512ZM59.0683 23.4C59.0683 25.575 60.5833 27.18 62.6383 27.18C64.6933 27.18 66.2083 25.575 66.2083 23.4C66.2083 21.225 64.6933 19.62 62.6383 19.62C60.5833 19.62 59.0683 21.225 59.0683 23.4ZM59.7733 23.4C59.7733 21.555 60.9583 20.25 62.6383 20.25C64.3183 20.25 65.5033 21.555 65.5033 23.4C65.5033 25.245 64.3183 26.55 62.6383 26.55C60.9583 26.55 59.7733 25.245 59.7733 23.4ZM69.1353 27H69.8403L71.5503 21.855C71.6703 21.51 71.7903 21.12 71.8953 20.7C72.0003 21.18 72.1053 21.51 72.2253 21.855L73.9353 27H74.6403L77.0553 19.8H76.3503L74.7153 24.69C74.4153 25.605 74.4603 25.485 74.2953 26.1C74.1453 25.545 74.0103 25.125 73.8603 24.69L72.2403 19.8H71.5353L69.9153 24.69C69.9003 24.72 69.6153 25.575 69.4953 26.115C69.3453 25.56 69.2103 25.125 69.0603 24.69L67.4403 19.8H66.7353L69.1353 27ZM79.1669 27V16.17H78.4769V27H79.1669ZM84.4327 27.18C86.0527 27.18 87.0877 26.415 87.5077 24.93H86.8027C86.5177 25.995 85.7077 26.55 84.4327 26.55C82.7377 26.55 81.7177 25.38 81.6577 23.415H87.5077V22.935C87.5077 20.97 86.2177 19.62 84.3427 19.62C82.3327 19.62 80.9677 21.165 80.9677 23.415C80.9677 25.68 82.3477 27.18 84.4327 27.18ZM84.3427 20.25C85.8277 20.25 86.8027 21.285 86.8027 22.845H81.6727C81.8377 21.27 82.8727 20.25 84.3427 20.25ZM92.0171 27.18C93.2621 27.18 94.2971 26.61 94.8371 25.38L94.9421 27H95.4971V16.17H94.8071V21.36C94.2821 20.19 93.2921 19.62 92.0171 19.62C89.9021 19.62 88.7021 21.27 88.7021 23.4C88.7021 25.53 89.9021 27.18 92.0171 27.18ZM92.0921 26.55C90.3821 26.55 89.4071 25.23 89.4071 23.4C89.4071 21.585 90.3821 20.25 92.0921 20.25C93.8171 20.25 94.7921 21.585 94.7921 23.4C94.7921 25.23 93.8171 26.55 92.0921 26.55ZM97.2421 23.175C97.2421 25.08 98.4571 26.73 100.527 26.73C101.832 26.73 102.897 26.055 103.392 24.9V26.85C103.392 28.485 102.327 29.58 100.737 29.58C99.3571 29.58 98.3821 28.845 98.1121 27.585H97.4371C97.7371 29.235 98.9821 30.21 100.722 30.21C102.732 30.21 104.067 28.86 104.067 26.85V19.8H103.512L103.422 21.48C102.942 20.28 101.937 19.62 100.602 19.62C98.4721 19.62 97.2421 21.27 97.2421 23.175ZM97.9471 23.175C97.9471 21.6 98.8921 20.25 100.602 20.25C102.327 20.25 103.272 21.495 103.272 23.16C103.272 24.855 102.282 26.1 100.572 26.1C98.9071 26.1 97.9471 24.765 97.9471 23.175ZM109.276 27.18C110.896 27.18 111.931 26.415 112.351 24.93H111.646C111.361 25.995 110.551 26.55 109.276 26.55C107.581 26.55 106.561 25.38 106.501 23.415H112.351V22.935C112.351 20.97 111.061 19.62 109.186 19.62C107.176 19.62 105.811 21.165 105.811 23.415C105.811 25.68 107.191 27.18 109.276 27.18ZM109.186 20.25C110.671 20.25 111.646 21.285 111.646 22.845H106.516C106.681 21.27 107.716 20.25 109.186 20.25ZM114.776 27V22.38C114.776 21.3 115.526 20.25 116.891 20.25C118.091 20.25 118.841 21.045 118.841 22.365V27H119.516V22.395C119.516 21.315 120.266 20.25 121.631 20.25C122.831 20.25 123.581 21.06 123.581 22.38V27H124.241V22.29C124.241 20.61 123.176 19.62 121.691 19.62C120.491 19.62 119.621 20.25 119.306 21.24C118.991 20.25 118.106 19.62 116.951 19.62C115.946 19.62 115.121 20.085 114.746 20.91L114.641 19.8H114.086V27H114.776ZM129.359 27.18C130.979 27.18 132.014 26.415 132.434 24.93H131.729C131.444 25.995 130.634 26.55 129.359 26.55C127.664 26.55 126.644 25.38 126.584 23.415H132.434V22.935C132.434 20.97 131.144 19.62 129.269 19.62C127.259 19.62 125.894 21.165 125.894 23.415C125.894 25.68 127.274 27.18 129.359 27.18ZM129.269 20.25C130.754 20.25 131.729 21.285 131.729 22.845H126.599C126.764 21.27 127.799 20.25 129.269 20.25ZM134.859 27V23.28C134.859 21.465 135.774 20.25 137.409 20.25C138.714 20.25 139.539 20.85 139.539 22.755V27H140.229V22.62C140.229 20.82 139.464 19.62 137.424 19.62C136.344 19.62 135.354 20.19 134.874 21.195L134.724 19.8H134.169V27H134.859ZM143.721 27V20.4H145.176V19.8H143.721V17.52H143.031V19.8H141.576V20.4H143.031V27H143.721Z" fill="#1F1F1F"/>
</svg>
