<svg width="142" height="40" viewBox="0 0 142 40" fill="none" xmlns="http://www.w3.org/2000/svg">
<rect x="0.179688" y="2.92688" width="140.954" height="37.0732" fill="#DBDBDB"/>
<rect x="0.1" y="0.1" width="140.754" height="36.8732" fill="#1D1D1D" stroke="#DBDBDB" stroke-width="0.2"/>
<path d="M19.5767 24.4348H20.2667L23.3567 14.8348L26.4617 24.4348H27.1217L30.3017 13.7848H29.5667L27.1667 21.8548C27.0617 22.1998 26.9267 22.7098 26.7767 23.4448C26.6267 22.8598 26.4917 22.3498 26.3267 21.8548L23.7167 13.7848H22.9967L20.4017 21.8548C20.2517 22.3348 20.1167 22.7548 19.9367 23.4598C19.8017 22.8448 19.6817 22.3348 19.5467 21.8548L17.1767 13.7848H16.4267L19.5767 24.4348ZM32.3578 24.4198V20.5198C32.3578 19.0048 33.2278 17.6848 34.9528 17.6848C36.1828 17.6848 37.0378 18.2848 37.0378 20.1898V24.4348H37.7278V20.0548C37.7278 18.2548 36.9328 17.0548 34.9978 17.0548C33.7228 17.0548 32.8228 17.6998 32.3578 18.6298V13.6048H31.6678V24.4198H32.3578ZM38.9884 27.4798C39.2884 27.5398 39.5734 27.5698 39.9634 27.5698C40.9384 27.5698 41.5984 27.1348 41.9734 26.0998L45.1684 17.2348H44.4634L42.0334 23.9848L39.4984 17.2348H38.7784L41.7034 24.9298L41.3434 25.9048C40.9684 26.9248 40.2484 26.9248 39.6634 26.9248H38.9884V27.4798ZM54.8969 24.4348C56.8469 24.4348 58.1369 23.3398 58.1369 21.6748C58.1369 20.3548 57.4919 19.4848 56.2019 19.0498C57.3419 18.5998 57.8969 17.7598 57.8969 16.4848C57.8969 14.8048 56.6519 13.7848 54.6269 13.7848H50.8769V24.4348H54.8969ZM54.6719 14.4448C56.2469 14.4448 57.1619 15.2248 57.1619 16.5448C57.1619 17.9398 56.3069 18.7648 54.8369 18.7648H51.5969V14.4448H54.6719ZM54.9419 19.4248C56.4719 19.4248 57.4019 20.2498 57.4019 21.5848C57.4019 22.9498 56.4869 23.7748 54.9419 23.7748H51.5969V19.4248H54.9419ZM65.084 17.2348V21.0748C65.084 22.9348 64.154 23.9848 62.639 23.9848C61.439 23.9848 60.569 23.3398 60.569 21.4948V17.2198H59.864V21.6748C59.864 23.4298 60.749 24.6148 62.474 24.6148C63.674 24.6148 64.694 23.9998 65.084 23.0998L65.219 24.4348H65.774V17.2348H65.084ZM67.3681 20.8348C67.3681 22.9648 68.5681 24.6148 70.6831 24.6148C71.9581 24.6148 72.9481 24.0448 73.4731 22.8748V27.4798H74.1631V17.2348H73.6081L73.5031 18.8548C72.9631 17.6248 71.9281 17.0548 70.6831 17.0548C68.5681 17.0548 67.3681 18.7048 67.3681 20.8348ZM68.0731 20.8348C68.0731 19.0048 69.0481 17.6848 70.7581 17.6848C72.4831 17.6848 73.4581 19.0048 73.4581 20.8348C73.4581 22.6498 72.4831 23.9848 70.7581 23.9848C69.0481 23.9848 68.0731 22.6498 68.0731 20.8348ZM76.7931 15.0298C77.1231 15.0298 77.4231 14.7448 77.4231 14.4148C77.4231 14.0698 77.1231 13.7698 76.7931 13.7698C76.4481 13.7698 76.1631 14.0698 76.1631 14.4148C76.1631 14.7448 76.4481 15.0298 76.7931 15.0298ZM76.4481 24.4348H77.1381V17.2348H76.4481V24.4348ZM80.9067 24.4348H81.6117L83.3217 19.2898C83.4417 18.9448 83.5617 18.5548 83.6667 18.1348C83.7717 18.6148 83.8767 18.9448 83.9967 19.2898L85.7067 24.4348H86.4117L88.8267 17.2348H88.1217L86.4867 22.1248C86.1867 23.0398 86.2317 22.9198 86.0667 23.5348C85.9167 22.9798 85.7817 22.5598 85.6317 22.1248L84.0117 17.2348H83.3067L81.6867 22.1248C81.6717 22.1548 81.3867 23.0098 81.2667 23.5498C81.1167 22.9948 80.9817 22.5598 80.8317 22.1248L79.2117 17.2348H78.5067L80.9067 24.4348ZM89.3554 20.8348C89.3554 23.0098 90.8704 24.6148 92.9254 24.6148C94.9804 24.6148 96.4954 23.0098 96.4954 20.8348C96.4954 18.6598 94.9804 17.0548 92.9254 17.0548C90.8704 17.0548 89.3554 18.6598 89.3554 20.8348ZM90.0604 20.8348C90.0604 18.9898 91.2454 17.6848 92.9254 17.6848C94.6054 17.6848 95.7904 18.9898 95.7904 20.8348C95.7904 22.6798 94.6054 23.9848 92.9254 23.9848C91.2454 23.9848 90.0604 22.6798 90.0604 20.8348ZM101.665 17.1298C101.425 17.0698 101.26 17.0548 101.035 17.0548C100.015 17.0548 99.2203 17.5798 98.9353 18.3898L98.8753 17.2348H98.2303V24.4348H98.9203V20.0548C98.9203 18.7048 99.7903 17.7298 101.125 17.7298H101.665V17.1298ZM103.858 24.4348V22.1848L105.403 20.5798L107.893 24.4348H108.688L105.868 20.1148L108.658 17.2348H107.773L103.858 21.2698V13.6048H103.168V24.4348H103.858ZM109.48 22.4848C109.48 23.7898 110.455 24.6148 111.985 24.6148C113.56 24.6148 114.61 23.7898 114.61 22.5598C114.61 21.5548 114.055 20.9698 112.795 20.6398L111.595 20.3248C110.725 20.0998 110.305 19.6648 110.305 19.0498C110.305 18.1648 110.935 17.6848 112.09 17.6848C113.17 17.6848 113.83 18.2248 113.875 19.1548H114.55C114.505 17.8498 113.575 17.0548 112.09 17.0548C110.605 17.0548 109.615 17.8498 109.615 19.0498C109.615 19.9348 110.2 20.6248 111.43 20.9398L112.645 21.2548C113.575 21.4948 113.92 21.8548 113.92 22.5598C113.92 23.4448 113.17 23.9848 111.955 23.9848C110.845 23.9848 110.155 23.4148 110.155 22.4848H109.48ZM119.018 22.1248V21.7048C119.018 20.8948 119.528 20.3998 120.398 19.7548C121.298 19.0798 122.273 18.3148 122.273 16.7848C122.273 15.0298 121.028 13.6048 119.063 13.6048C117.293 13.6048 115.838 15.0148 115.838 16.7848H116.528C116.528 15.4048 117.668 14.2798 119.063 14.2798C120.593 14.2798 121.583 15.4048 121.583 16.7848C121.583 17.9848 120.788 18.6298 119.963 19.2598C119.108 19.9048 118.343 20.5498 118.343 21.7048V22.1248H119.018ZM118.748 24.6448C119.183 24.6448 119.558 24.2698 119.558 23.8198C119.558 23.3698 119.183 22.9948 118.748 22.9948C118.283 22.9948 117.908 23.3698 117.908 23.8198C117.908 24.2698 118.283 24.6448 118.748 24.6448Z" fill="#E9E9E9"/>
</svg>
