<svg width="129" height="42" viewBox="0 0 129 42" fill="none" xmlns="http://www.w3.org/2000/svg">
<rect y="3" width="129" height="39" fill="#1A1919"/>
<rect x="0.1" y="0.1" width="128.8" height="38.8" fill="white" stroke="black" stroke-width="0.2"/>
<path d="M20.5299 13.7434H23.8749V23.7334H24.5949V13.7434H27.9399V13.0834H20.5299V13.7434ZM29.915 23.7184V19.8184C29.915 18.3034 30.785 16.9834 32.51 16.9834C33.74 16.9834 34.595 17.5834 34.595 19.4884V23.7334H35.285V19.3534C35.285 17.5534 34.49 16.3534 32.555 16.3534C31.28 16.3534 30.38 16.9984 29.915 17.9284V12.9034H29.225V23.7184H29.915ZM40.3971 23.9134C42.0171 23.9134 43.0521 23.1484 43.4721 21.6634H42.7671C42.4821 22.7284 41.6721 23.2834 40.3971 23.2834C38.7021 23.2834 37.6821 22.1134 37.6221 20.1484H43.4721V19.6684C43.4721 17.7034 42.1821 16.3534 40.3071 16.3534C38.2971 16.3534 36.9321 17.8984 36.9321 20.1484C36.9321 22.4134 38.3121 23.9134 40.3971 23.9134ZM40.3071 16.9834C41.7921 16.9834 42.7671 18.0184 42.7671 19.5784H37.6371C37.8021 18.0034 38.8371 16.9834 40.3071 16.9834ZM50.3406 13.0834H49.6206V23.7334H50.3406V13.0834ZM53.5137 23.7334V20.0134C53.5137 18.1984 54.4287 16.9834 56.0637 16.9834C57.3687 16.9834 58.1937 17.5834 58.1937 19.4884V23.7334H58.8837V19.3534C58.8837 17.5534 58.1187 16.3534 56.0787 16.3534C54.9987 16.3534 54.0087 16.9234 53.5287 17.9284L53.3787 16.5334H52.8237V23.7334H53.5137ZM60.3378 21.7834C60.3378 23.0884 61.3128 23.9134 62.8428 23.9134C64.4178 23.9134 65.4678 23.0884 65.4678 21.8584C65.4678 20.8534 64.9128 20.2684 63.6528 19.9384L62.4528 19.6234C61.5828 19.3984 61.1628 18.9634 61.1628 18.3484C61.1628 17.4634 61.7928 16.9834 62.9478 16.9834C64.0278 16.9834 64.6878 17.5234 64.7328 18.4534H65.4078C65.3628 17.1484 64.4328 16.3534 62.9478 16.3534C61.4628 16.3534 60.4728 17.1484 60.4728 18.3484C60.4728 19.2334 61.0578 19.9234 62.2878 20.2384L63.5028 20.5534C64.4328 20.7934 64.7778 21.1534 64.7778 21.8584C64.7778 22.7434 64.0278 23.2834 62.8128 23.2834C61.7028 23.2834 61.0128 22.7134 61.0128 21.7834H60.3378ZM68.616 23.7334V17.1334H70.071V16.5334H68.616V14.2534H67.926V16.5334H66.471V17.1334H67.926V23.7334H68.616ZM74.9501 16.4284C74.7101 16.3684 74.5451 16.3534 74.3201 16.3534C73.3001 16.3534 72.5051 16.8784 72.2201 17.6884L72.1601 16.5334H71.5151V23.7334H72.2051V19.3534C72.2051 18.0034 73.0751 17.0284 74.4101 17.0284H74.9501V16.4284ZM81.523 16.5334V20.3734C81.523 22.2334 80.593 23.2834 79.078 23.2834C77.878 23.2834 77.008 22.6384 77.008 20.7934V16.5184H76.303V20.9734C76.303 22.7284 77.188 23.9134 78.913 23.9134C80.113 23.9134 81.133 23.2984 81.523 22.3984L81.658 23.7334H82.213V16.5334H81.523ZM83.8071 20.1634C83.8071 22.4134 85.1571 23.9134 87.1371 23.9134C88.6671 23.9134 89.8971 23.0134 90.2871 21.6484H89.5821C89.2521 22.6234 88.2921 23.2834 87.1371 23.2834C85.5321 23.2834 84.4821 22.0084 84.4821 20.1484C84.4821 18.1984 85.6221 16.9684 87.2271 16.9684C88.2921 16.9684 89.2521 17.5684 89.5521 18.6334H90.2571C89.9271 17.2684 88.7721 16.3534 87.2271 16.3534C85.1571 16.3534 83.8071 17.8834 83.8071 20.1634ZM93.2546 23.7334V17.1334H94.7096V16.5334H93.2546V14.2534H92.5646V16.5334H91.1096V17.1334H92.5646V23.7334H93.2546ZM95.5405 20.1334C95.5405 22.3084 97.0555 23.9134 99.1105 23.9134C101.165 23.9134 102.68 22.3084 102.68 20.1334C102.68 17.9584 101.165 16.3534 99.1105 16.3534C97.0555 16.3534 95.5405 17.9584 95.5405 20.1334ZM96.2455 20.1334C96.2455 18.2884 97.4305 16.9834 99.1105 16.9834C100.79 16.9834 101.975 18.2884 101.975 20.1334C101.975 21.9784 100.79 23.2834 99.1105 23.2834C97.4305 23.2834 96.2455 21.9784 96.2455 20.1334ZM107.85 16.4284C107.61 16.3684 107.445 16.3534 107.22 16.3534C106.2 16.3534 105.405 16.8784 105.12 17.6884L105.06 16.5334H104.415V23.7334H105.105V19.3534C105.105 18.0034 105.975 17.0284 107.31 17.0284H107.85V16.4284Z" fill="#1F1F1F"/>
</svg>
