<svg width="172" height="45" viewBox="0 0 172 45" fill="none" xmlns="http://www.w3.org/2000/svg">
<rect x="7.17529" y="2.36572" width="152.478" height="42.6341" fill="#1A1919"/>
<rect x="9.83584" y="0.1" width="152.278" height="42.4341" fill="white" stroke="black" stroke-width="0.2"/>
<path d="M23.1283 27L24.0133 24.465H28.1083L28.9933 27H31.0183L27.0583 16.035H25.0933L21.1333 27H23.1283ZM25.8283 19.305C25.9333 19.005 26.0233 18.675 26.0683 18.465C26.0983 18.69 26.2033 19.02 26.2933 19.305L27.5533 22.845H24.5833L25.8283 19.305ZM31.3513 23.28C31.3513 25.635 32.8213 27.195 35.0713 27.195C37.0063 27.195 38.4463 26.01 38.6713 24.285H36.8263C36.6313 25.095 35.9863 25.545 35.0713 25.545C33.9013 25.545 33.1813 24.675 33.1813 23.28C33.1813 21.885 33.9613 21 35.1313 21C36.0013 21 36.6163 21.435 36.8263 22.275H38.6563C38.4613 20.49 37.0813 19.365 35.0563 19.365C32.8663 19.365 31.3513 20.985 31.3513 23.28ZM41.8784 27V25.005L42.9584 23.88L44.8934 27H46.9934L44.2334 22.53L47.0534 19.59H44.7584L41.8784 22.695V15.84H40.0634V27H41.8784ZM49.9347 27V23.01C49.9347 21.81 50.6247 21.03 51.7497 21.03C52.6947 21.03 53.3097 21.63 53.3097 22.875V27H55.1397V22.44C55.1397 20.52 54.1797 19.365 52.3197 19.365C51.3147 19.365 50.4147 19.8 49.9497 20.55L49.7997 19.59H48.1047V27H49.9347ZM56.5027 23.28C56.5027 25.59 58.1677 27.18 60.4627 27.18C62.7577 27.18 64.4227 25.59 64.4227 23.28C64.4227 20.97 62.7577 19.38 60.4627 19.38C58.1677 19.38 56.5027 20.97 56.5027 23.28ZM58.3327 23.28C58.3327 21.93 59.2027 21.015 60.4627 21.015C61.7227 21.015 62.5927 21.93 62.5927 23.28C62.5927 24.63 61.7227 25.545 60.4627 25.545C59.2027 25.545 58.3327 24.63 58.3327 23.28ZM67.142 27H68.927L69.947 23.82C70.322 22.605 70.457 22.08 70.532 21.735C70.592 22.11 70.757 22.815 71.057 23.79L72.077 27H73.787L76.352 19.59H74.417L73.427 22.77C73.292 23.235 73.052 24.12 72.932 24.675C72.842 24.18 72.542 23.07 72.452 22.77L71.462 19.59H69.602L68.582 22.77C68.342 23.505 68.207 23.97 68.072 24.69C67.937 24 67.787 23.355 67.622 22.77L66.647 19.59H64.742L67.142 27ZM79.3051 27V15.84H77.4901V27H79.3051ZM84.5398 27.195C86.4748 27.195 87.8248 26.22 88.1398 24.6H86.4448C86.2348 25.305 85.5748 25.695 84.5698 25.695C83.3548 25.695 82.6648 25.035 82.5298 23.73L88.1098 23.715V23.16C88.1098 20.85 86.6998 19.365 84.4798 19.365C82.3048 19.365 80.7898 20.97 80.7898 23.295C80.7898 25.59 82.3348 27.195 84.5398 27.195ZM84.4948 20.865C85.5898 20.865 86.2948 21.54 86.2948 22.56H82.5748C82.7548 21.45 83.4148 20.865 84.4948 20.865ZM92.6194 27.195C93.7444 27.195 94.7044 26.7 95.1544 25.845L95.2744 27H96.9544V15.84H95.1394V20.535C94.6744 19.8 93.7594 19.365 92.7244 19.365C90.4894 19.365 89.1394 21.015 89.1394 23.325C89.1394 25.62 90.4744 27.195 92.6194 27.195ZM93.0244 25.515C91.7494 25.515 90.9694 24.585 90.9694 23.265C90.9694 21.945 91.7494 21 93.0244 21C94.2994 21 95.1244 21.93 95.1244 23.265C95.1244 24.6 94.2994 25.515 93.0244 25.515ZM98.4415 23.13C98.4415 25.275 99.8215 26.85 101.922 26.85C102.987 26.85 103.902 26.415 104.367 25.725V26.955C104.367 28.185 103.557 28.98 102.297 28.98C101.172 28.98 100.437 28.41 100.317 27.45H98.4865C98.7115 29.43 100.167 30.645 102.297 30.645C104.697 30.645 106.182 29.1 106.182 26.625V19.59H104.487L104.382 20.61C103.947 19.815 103.077 19.35 101.967 19.35C99.8515 19.35 98.4415 20.97 98.4415 23.13ZM100.287 23.085C100.287 21.87 101.067 20.955 102.282 20.955C103.557 20.955 104.322 21.825 104.322 23.085C104.322 24.375 103.542 25.26 102.282 25.26C101.082 25.26 100.287 24.33 100.287 23.085ZM111.39 27.195C113.325 27.195 114.675 26.22 114.99 24.6H113.295C113.085 25.305 112.425 25.695 111.42 25.695C110.205 25.695 109.515 25.035 109.38 23.73L114.96 23.715V23.16C114.96 20.85 113.55 19.365 111.33 19.365C109.155 19.365 107.64 20.97 107.64 23.295C107.64 25.59 109.185 27.195 111.39 27.195ZM111.345 20.865C112.44 20.865 113.145 21.54 113.145 22.56H109.425C109.605 21.45 110.265 20.865 111.345 20.865ZM118.255 27V22.8C118.255 21.6 118.96 21.03 119.83 21.03C120.7 21.03 121.255 21.585 121.255 22.62V27H123.085V22.8C123.085 21.585 123.76 21.015 124.645 21.015C125.515 21.015 126.085 21.57 126.085 22.635V27H127.9V22.155C127.9 20.445 126.91 19.365 125.11 19.365C123.985 19.365 123.115 19.92 122.74 20.775C122.35 19.92 121.57 19.365 120.445 19.365C119.38 19.365 118.63 19.845 118.255 20.46L118.105 19.59H116.425V27H118.255ZM133.011 27.195C134.946 27.195 136.296 26.22 136.611 24.6H134.916C134.706 25.305 134.046 25.695 133.041 25.695C131.826 25.695 131.136 25.035 131.001 23.73L136.581 23.715V23.16C136.581 20.85 135.171 19.365 132.951 19.365C130.776 19.365 129.261 20.97 129.261 23.295C129.261 25.59 130.806 27.195 133.011 27.195ZM132.966 20.865C134.061 20.865 134.766 21.54 134.766 22.56H131.046C131.226 21.45 131.886 20.865 132.966 20.865ZM139.876 27V23.01C139.876 21.81 140.566 21.03 141.691 21.03C142.636 21.03 143.251 21.63 143.251 22.875V27H145.081V22.44C145.081 20.52 144.121 19.365 142.261 19.365C141.256 19.365 140.356 19.8 139.891 20.55L139.741 19.59H138.046V27H139.876ZM149.399 27V21.12H150.839V19.59H149.399V17.28H147.569V19.59H146.144V21.12H147.569V27H149.399Z" fill="#1F1F1F"/>
</svg>
